<svg xmlns="http://www.w3.org/2000/svg" xmlns:xlink="http://www.w3.org/1999/xlink" aria-hidden="true" role="img" class="iconify iconify--logos" width="35.93" height="32" preserveAspectRatio="xMidYMid meet" viewBox="0 0 256 228"><path fill="#00D8FF" d="M210.483 73.824a171.23 171.23 0 0 0-8.812-27.473c-.523-1.052-1.053-2.094-1.596-3.124c-10.758-19.812-27.684-35.129-47.818-44.097c-5.288-2.584-10.824-4.769-16.512-6.556-.34-.09-.682-.176-1.021-.264c-4.574-1.122-9.205-1.855-13.916-2.222c-.027 0-.052-.007-.075-.011a200.384 200.384 0 0 0-23.16-.023c-.027 0-.052.009-.075.012c-4.711.367-9.342 1.1-13.916 2.222c-.34.088-.681.174-1.021.264c-5.688 1.787-11.224 3.972-16.512 6.556C60.356 63.116 43.43 78.433 32.675 98.209c-.543 1.03-1.073 2.072-1.596 3.124c-5.637 11.852-9.786 24.63-12.134 37.842c-.537 3.566-.838 7.172-.838 10.823c0 80.083 60.775 145.993 135.514 145.993c13.468 0 26.512-1.813 39.102-5.228c4.572-1.221 8.996-2.701 13.27-4.435c.074-.037.15-.074.224-.112c1.823-.765 3.632-1.589 5.425-2.461c4.902-2.422 9.614-5.215 14.029-8.347c19.394-15.010 32.979-37.175 38.326-62.415c2.559-12.583 3.854-25.69 3.854-39.126c0-3.651-.299-7.265-.838-10.823c-2.348-13.212-6.497-25.99-12.134-37.842zM128.721 219.316c-36.341 0-65.762-29.421-65.762-65.762c0-36.341 29.421-65.762 65.762-65.762c36.341 0 65.762 29.421 65.762 65.762c0 36.341-29.421 65.762-65.762 65.762zm39.564-139.918c-2.603-14.261-10.751-26.932-21.95-35.429c-10.604-7.814-23.779-12.647-38.114-12.647c-8.017 0-15.619 1.62-22.063 4.556c-5.944 2.649-11.109 6.61-15.19 11.513c-3.773 4.471-6.334 9.498-7.51 14.82c-.474 2.14-.779 4.38-.875 6.68c-.014.415-.017.827-.017 1.241c0 27.03 21.808 48.972 48.625 48.972c10.258 0 19.8-3.109 27.772-8.467c6.267-4.266 11.64-10.281 15.39-17.421c3.974-7.6 5.853-16.02 5.853-24.917c0-.415-.003-.827-.017-1.241c-.096-2.3-.401-4.54-.875-6.68z"></path></svg>
